PathFileType	4	(X/Y/Z)	48_2_96_p1_0-279.trc
DataRate	CameraRate	NumFrames	NumMarkers	Units	OrigDataRate	OrigDataStartFrame	OrigNumFrames
47.0	47.0	6	27	m	47.0	210	280
Frame#	Time	RHip			RKnee			RAnkle			RBigToe			RSmallToe			RHeel			LHip			LKnee			LAnkle			LBigToe			LSmallToe			LHeel			Neck			Head			Nose			RShoulder			RElbow			RWrist			RThumb			RIndex			RPinky			LShoulder			LElbow			LWrist			LThumb			LIndex			LPinky			
		X1	Y1	Z1	X2	Y2	Z2	X3	Y3	Z3	X4	Y4	Z4	X5	Y5	Z5	X6	Y6	Z6	X7	Y7	Z7	X8	Y8	Z8	X9	Y9	Z9	X10	Y10	Z10	X11	Y11	Z11	X12	Y12	Z12	X13	Y13	Z13	X14	Y14	Z14	X15	Y15	Z15	X16	Y16	Z16	X17	Y17	Z17	X18	Y18	Z18	X19	Y19	Z19	X20	Y20	Z20	X21	Y21	Z21	X22	Y22	Z22	X23	Y23	Z23	X24	Y24	Z24	X25	Y25	Z25	X26	Y26	Z26	X27	Y27	Z27	
210	4.468085106382978	0.1889467757582384	0.3880157609443062	0.6584177822411611	0.18470548390009753	0.5522643604881283	1.0838164417214007	0.15325792677489541	0.6735615925888699	1.5217435947460654	0.10448052507520524	0.4882051756340927	1.561675470583044	0.17256612519058045	0.4823165361274831	1.560796598127303	0.13564639510452745	0.7744461667700605	1.5850291379664954	-0.03056532659996341	0.42485700045939156	0.6427914684590182	-0.02944387969024072	0.5855696207949619	1.0873927445363374	-0.0385972217077239	0.6754176665999737	1.491386234897814	-0.050646722195441585	0.4653605705309061	1.51735409974489	-0.09256109370868247	0.5122280404340788	1.52790907127925	-0.021031478705129936	0.741014993873198	1.5623287162616146	0.12723061527756813	0.3876408347657727	-0.005502205096731938	0.14661353279685477	0.27966494711585466	-0.26820492489091335	0.11165153476133963	0.21409233345036327	-0.11978544910220626	0.30407775292439804	0.3670737415288676	0.1322626002668698	0.33318518845740996	0.39906185813876643	0.42541397122535735	0.2997318371778108	0.3705808038268669	0.7069420465374385	0.2363306857074173	0.374508528366509	0.8129738031573395	0.25169896102000944	0.36121798910042374	0.8300247191833933	0.2860053513089709	0.35034593241743733	0.8317680793299654	-0.06121764958162265	0.41186500688137506	0.07802604001006498	-0.11848946615546264	0.4626822606544959	0.37172943584604423	-0.14117535086040056	0.41043705997327157	0.6428988331456856	-0.1031754275607773	0.43346198085278687	0.7485900910094988	-0.1381452864637586	0.38380821585646974	0.7708184191856524	-0.15785447932147986	0.40624961063320164	0.7629357885165021
211	4.48936170212766	0.18902437052530793	0.38806192556865476	0.6584489513428333	0.1853811708394441	0.5538244852275528	1.0880712233254834	0.15323993372587755	0.673540208011988	1.5217066007950315	0.10176419044751579	0.5039480943235949	1.5687305826975495	0.1726741318676985	0.4827681272581694	1.5608644192087824	0.13560904845612767	0.7743197313434697	1.5848272443733615	-0.03054109061826043	0.42487511314810206	0.6428114517866877	-0.029454080838286798	0.5857521006469963	1.0875467022991554	-0.03857292195801069	0.6754328354899869	1.491348085993821	-0.05069344202464287	0.4654667908958708	1.5172786594733327	-0.09256497830815337	0.5122137015187379	1.527814643833216	-0.020210375027861223	0.7428689226222291	1.5667966528246933	0.12720440800640556	0.3877045850585897	-0.005494142926613235	0.14661229529085273	0.27962293192040905	-0.2682417832474101	0.11165384279581157	0.21407343661709216	-0.11976339077336629	0.3025980295248512	0.38011006206721637	0.13224902820577183	0.33738920199897193	0.3997976975461637	0.4254822575440893	0.3037880681117547	0.37163124178460205	0.7074077998486269	0.236359056220157	0.3748034230476567	0.8130842552363603	0.2516642848264877	0.36146053177597415	0.8301877903245503	0.28594055080158903	0.350070026849327	0.831845802018063	-0.06110492410537388	0.4130390585132491	0.08154918907368498	-0.11848157035897089	0.46271483074461367	0.3718074491155468	-0.14479052203571183	0.3984947648928126	0.640579215635642	-0.1076806801545088	0.43205825067624437	0.748002496087496	-0.1383867165465413	0.3841337618070247	0.7664789282760617	-0.15768191363820738	0.40620182948971517	0.7629006710612651
212	4.51063829787234	0.18905312924015016	0.38825645450102964	0.6585739024427844	0.18463661868221332	0.5523581083060644	1.0838375519752033	0.153262050320953	0.6734918272422731	1.5216680907628286	0.10172898388437565	0.5038065640156739	1.568941413433205	0.1726077783548346	0.48266815653839046	1.5609611018566605	0.13561726498473825	0.7741482993299614	1.5846854451032049	-0.02614410649491047	0.4368015028828589	0.6450916764002437	-0.02939841034777069	0.5858134092793456	1.0875154050913387	-0.03942213392375609	0.673486987732176	1.4855968760767941	-0.05067609652117798	0.4655081880372966	1.5173923837868792	-0.09613925474403688	0.5268890227726852	1.5344968344090508	-0.020914861794643625	0.7405992588559194	1.561301333955087	0.12721230036888354	0.38766454919449467	-0.005473303402034018	0.14662809999056398	0.279722169506204	-0.26817641639408824	0.11166353633597757	0.21411330579353963	-0.1197831894845365	0.3040478855190248	0.36700063858288895	0.13221858194566286	0.3374116363271755	0.3998316294590596	0.4254185754730644	0.3037461204640999	0.3715492734266302	0.707367909259696	0.23707391997695065	0.37601930859712196	0.8167750283815378	0.2525684750899801	0.3627789771751497	0.8344528733708769	0.28605721995183836	0.350329796841043	0.8318055770350371	-0.06126015568104278	0.4116057616751145	0.07793759190115912	-0.11827958346165508	0.46400835393250023	0.3757695501122328	-0.14479237163425224	0.3984733307862956	0.640620344195872	-0.10787955155775023	0.4314769215785686	0.7479423260286333	-0.13849537578622462	0.38413269046028586	0.7665788065063538	-0.15795390591167546	0.40608359529794597	0.7631021568413062
213	4.531914893617022	0.18896022719664138	0.38812120377156467	0.6585014504158032	0.18471746348121293	0.5522791358747606	1.0836346302584454	0.15336765178975947	0.6737300082629992	1.5218510385710162	0.10441999554470918	0.4879914099069721	1.561932704152657	0.17235832664526876	0.4824178850074288	1.5612728076389875	0.13569420083386652	0.7743827998661196	1.5850169051503769	-0.030641166387569103	0.4246857004676362	0.6426649386586363	-0.030358450801279337	0.5859230106520905	1.0911190670238078	-0.038594996669650904	0.675531256586745	1.4913995723586213	-0.05070603747796951	0.4655002601997359	1.517538374122791	-0.09625914030895644	0.5270022046446713	1.5346884996459034	-0.020950224208142562	0.7409547882311401	1.5618584985084591	0.12720163906948714	0.38769286244125756	-0.005428942403006566	0.14664166410934476	0.27974682906308723	-0.26815203947792626	0.11383460154534761	0.20347704246554732	-0.11881791721689262	0.3026099264283643	0.38004278053605955	0.13222631242296953	0.33318277221034914	0.3991091822207897	0.42514414400128253	0.30374867086374074	0.3715393240304412	0.7074074686691884	0.2371686161536831	0.37629362386227805	0.8168332632595464	0.2526262168095887	0.3628983358862711	0.8344359628897727	0.2861317748527231	0.3505107886377494	0.8318310585753597	-0.06135651548440084	0.4117171596719021	0.07809298111760583	-0.11845044075681452	0.4625754360455997	0.37172824743408145	-0.14486531846454073	0.3983481941257045	0.6405547999377513	-0.11231517717928302	0.4190355792606501	0.7449078374963323	-0.146157602159745	0.37140182335329824	0.7590959616327568	-0.15798811726149897	0.4058018328163536	0.7628178340378955
214	4.553191489361702	0.18901178773330599	0.38818363528708394	0.6584968137898352	0.18468718382095206	0.5522108615892196	1.083579672619984	0.15332231646354802	0.67350395185925	1.5217478389455252	0.1016176507056821	0.5035911717047262	1.5691211803672296	0.17236241782392767	0.48229898483719263	1.561081942476628	0.13567883584391877	0.7742091533167713	1.5849323541351195	-0.030589036452905227	0.4247575910927258	0.6426129616508975	-0.03370178987252773	0.6011725888701214	1.095731638367657	-0.039395102341140055	0.6734661634454605	1.485553405662683	-0.05069398367575193	0.46419861894605596	1.521902905797483	-0.09692045971955429	0.5250690595793025	1.5287935850557037	-0.02101973349616888	0.7405558307249591	1.5615389347648543	0.12720526737588167	0.38771838740681897	-0.005485383219434877	0.1466186299750338	0.27977383699419506	-0.2682013470906938	0.11400083902428479	0.20391562363530852	-0.12192099023351237	0.30264143001917954	0.3801958088530086	0.13221385523907622	0.33362511816607315	0.39933009931029956	0.4214287003468701	0.30375624370103016	0.3715853597431766	0.7073923634232755	0.23721422602404751	0.37650122354514803	0.8169552157076642	0.25637588281476353	0.3620358294686998	0.8306421265642135	0.28615803925702077	0.3505974524233227	0.8317603621141407	-0.060984319502363715	0.4119039762972054	0.07483763083902192	-0.11846279702334678	0.46272563175420595	0.37167627867210445	-0.14493654895643718	0.39806546635656576	0.6406169454737574	-0.11272987937016453	0.4182879390318862	0.7447796305074571	-0.14656298801920242	0.37086368663705	0.7631667025032304	-0.15801090102289753	0.40619762101190665	0.7631780866869203
215	4.574468085106383	0.1889753560276953	0.38825568932768795	0.6588182483377037	0.18372568907011677	0.5526574630991108	1.0878542946674374	0.15079152247905114	0.6917162712541927	1.5295656398701525	0.1015726595021184	0.5034868128894658	1.5691900233172398	0.16990025236984121	0.49814612468244873	1.5687000077415336	0.13565557996612793	0.7742793772666644	1.5849505514181255	-0.030624324774178088	0.4247057781448422	0.6426376241908067	-0.030262338461513792	0.5857842480390151	1.0910180389739828	-0.03944857575612881	0.6735487634278268	1.485673137097074	-0.050693804856433794	0.46431686351911755	1.5218812895564617	-0.09620630461075723	0.5269672895675988	1.5346753668694935	-0.021150941115171955	0.7411150386509026	1.5625664108439723	0.1272047080463468	0.387670299661691	-0.005574264593115194	0.1429087160981247	0.2796288213637309	-0.2684021447228123	0.11173187190689932	0.2137592943209929	-0.12599878243982565	0.302626992376419	0.3801166700997232	0.1322240409128813	0.3341985987293401	0.40051180659760427	0.4250184285795714	0.30377535310424825	0.3715925823619083	0.707382648109767	0.23555593398441482	0.3911069336194696	0.8204629085264014	0.25723592995409506	0.3637895805242911	0.8351148479766225	0.2900869464782696	0.35948941980960225	0.8308160396584477	-0.06087806774087519	0.41317373376336175	0.07835401162503972	-0.1185183938354762	0.46264840459580053	0.37167069966225574	-0.14509607845932457	0.39764804095485395	0.6404975386036462	-0.12122827235414162	0.43020824322705326	0.7503437742573869	-0.14746532414472577	0.37175179850388385	0.7626600804314011	-0.1579086277916533	0.4065467168188729	0.7590040229892956
